<svg width="340" height="138" viewBox="0 0 340 138" fill="none" xmlns="http://www.w3.org/2000/svg">
<path d="M112.779 49.7335H97.4239L109.865 37.2922C111.165 35.9963 112.196 34.4566 112.9 32.7615C113.603 31.0663 113.966 29.2489 113.966 27.4135C113.966 25.5781 113.603 23.7608 112.9 22.0656C112.196 20.3704 111.165 18.8308 109.865 17.5349C108.569 16.2344 107.029 15.2025 105.334 14.4984C103.638 13.7943 101.82 13.4319 99.984 13.4319C98.148 13.4319 96.33 13.7943 94.6344 14.4984C92.9387 15.2025 91.3987 16.2344 90.1027 17.5349L77.6407 30.002V14.595C77.6407 12.7609 77.2791 10.9448 76.5764 9.25063C75.8737 7.55645 74.8439 6.01747 73.5457 4.72176C72.2476 3.42604 70.7067 2.39902 69.0113 1.69949C67.3158 0.999957 65.499 0.641647 63.6649 0.645043C59.9651 0.645043 56.4169 2.11477 53.8008 4.7309C51.1846 7.34703 49.7149 10.8953 49.7149 14.595V29.9917L37.2167 17.5297C35.9189 16.2315 34.378 15.2017 32.6822 14.4991C30.9863 13.7965 29.1686 13.4348 27.3329 13.4348C25.4972 13.4348 23.6795 13.7965 21.9836 14.4991C20.2878 15.2017 18.7469 16.2315 17.4491 17.5297C16.1493 18.8256 15.1181 20.3653 14.4145 22.0604C13.7108 23.7556 13.3487 25.573 13.3487 27.4084C13.3487 29.2438 13.7108 31.0611 14.4145 32.7563C15.1181 34.4515 16.1493 35.9911 17.4491 37.287L29.8904 49.7284H14.5557C12.7216 49.7284 10.9055 50.0901 9.21133 50.7927C7.51715 51.4954 5.97816 52.5252 4.68245 53.8234C3.38673 55.1215 2.35972 56.6624 1.66019 58.3578C0.960658 60.0533 0.60234 61.8701 0.605737 63.7042C0.605737 67.404 2.07546 70.9522 4.69159 73.5683C7.30773 76.1845 10.856 77.6542 14.5557 77.6542H30.3502C25.6811 85.1603 23.7093 94.0335 24.7599 102.811C26.8731 120.77 41.4379 135.221 59.4231 137.123C66.7136 137.932 74.0848 136.675 80.6948 133.494C87.3048 130.314 92.887 125.339 96.8038 119.137C100.721 112.935 102.814 105.756 102.845 98.4206C102.876 91.0854 100.844 83.8892 96.9796 77.6542H112.779C114.613 77.6576 116.43 77.2993 118.126 76.5997C119.821 75.9002 121.362 74.8732 122.66 73.5775C123.958 72.2818 124.988 70.7428 125.691 69.0486C126.393 67.3544 126.755 65.5383 126.755 63.7042C126.758 61.8683 126.398 60.05 125.697 58.3534C124.995 56.6569 123.966 55.1154 122.667 53.8175C121.369 52.5196 119.827 51.4908 118.13 50.79C116.434 50.0891 114.615 49.7301 112.779 49.7335ZM66.2379 109.15C63.8588 109.709 61.3623 109.477 59.1269 108.489C56.8915 107.502 55.039 105.812 53.8501 103.677C52.6612 101.542 52.2007 99.0776 52.5385 96.6572C52.8763 94.2367 53.994 91.9924 55.7221 90.2644C57.4501 88.5363 59.6944 87.4187 62.1148 87.0808C64.5352 86.743 66.9998 87.2035 69.135 88.3923C71.2702 89.5812 72.9596 91.4338 73.9472 93.6692C74.9348 95.9047 75.1667 98.4011 74.6079 100.78C74.1258 102.813 73.0876 104.672 71.6094 106.148C70.1312 107.624 68.2713 108.66 66.2379 109.14V109.15Z" fill="white"/>
<path d="M162.049 45.2336V53.5261H178.866V61.9891H162.049V75.8099H152.32V36.6621H181.568V45.2336H162.049Z" fill="white"/>
<path d="M210.532 64.0657H190.32C190.956 66.9435 192.857 69.191 196.655 69.191C198.721 69.191 199.936 68.7311 200.788 67.6926H210.233C208.564 73.1641 203.382 76.5638 196.799 76.5638C187.644 76.5638 181.537 70.3638 181.537 61.8233C181.537 53.2828 187.468 47.1396 196.107 47.1396C205.981 47.1396 211.912 54.1663 210.532 64.0657ZM190.439 58.713H202.069C201.553 55.489 199.533 54.063 196.386 54.063C193.085 54.0475 191.183 55.892 190.439 58.713Z" fill="white"/>
<path d="M260.055 59.6325V75.8145H250.755V60.7847C250.755 56.9872 248.797 55.618 246.146 55.618C245.268 55.5996 244.396 55.7817 243.599 56.1506C242.801 56.5194 242.098 57.0653 241.543 57.7467C241.591 58.2843 241.61 58.8241 241.6 59.3638V75.83H232.3V60.4953C232.3 56.6978 230.341 55.6025 227.98 55.6025C227.046 55.5906 226.121 55.798 225.282 56.2081C224.442 56.6182 223.71 57.2195 223.144 57.9637V75.8145H213.705V47.8887H223.093V49.6143C225.111 47.9416 227.67 47.0618 230.29 47.1395C233.855 47.1395 236.795 48.2917 238.81 50.596C241.347 48.3067 244.662 47.0707 248.079 47.1395C255.333 47.1395 260.055 51.5725 260.055 59.6325Z" fill="white"/>
<path d="M293.395 47.8888V75.8147H284.07V74.3163C281.811 75.8219 279.148 76.6056 276.433 76.5638C268.89 76.5638 262.556 70.1106 262.556 61.8233C262.556 53.536 268.89 47.1397 276.433 47.1397C279.148 47.074 281.819 47.8363 284.09 49.3252V47.8888H293.395ZM284.07 66.1375V57.504C283.355 56.6901 282.467 56.0471 281.471 55.6224C280.475 55.1976 279.396 55.0019 278.314 55.0498C274.511 55.0498 271.69 57.9845 271.69 61.844C271.69 65.7035 274.511 68.6381 278.314 68.6381C279.4 68.6803 280.481 68.4774 281.477 68.0445C282.474 67.6116 283.36 66.9598 284.07 66.1375Z" fill="white"/>
<path d="M306.126 34.9365V75.8152H296.743V34.9365H306.126Z" fill="white"/>
<path d="M339.224 64.0657H319.012C319.647 66.9435 321.544 69.191 325.346 69.191C327.413 69.191 328.627 68.7311 329.48 67.6926H338.95C337.281 73.1641 332.099 76.5638 325.517 76.5638C316.361 76.5638 310.26 70.3638 310.26 61.8233C310.26 53.2828 316.191 47.1396 324.83 47.1396C334.672 47.1396 340.603 54.1663 339.224 64.0657ZM319.126 58.713H330.756C330.239 55.489 328.224 54.063 325.072 54.063C321.776 54.0475 319.875 55.892 319.126 58.713Z" fill="white"/>
<path d="M176.908 122.217L169.483 110.891H162.049V122.217H152.32V83.0845H169.421C179.15 83.0845 185.66 88.3803 185.66 96.8433C185.714 99.2078 185.126 101.543 183.96 103.6C182.794 105.658 181.093 107.361 179.037 108.53L188.249 122.217H176.908ZM162.049 102.124H169.246C172.992 102.124 175.926 100.057 175.926 96.8278C175.926 93.5986 172.992 91.6611 169.246 91.6611H162.049V102.124Z" fill="white"/>
<path d="M190.274 87.5997C190.237 86.673 190.478 85.7563 190.966 84.9676C191.454 84.1788 192.166 83.554 193.012 83.1733C193.858 82.7927 194.798 82.6737 195.712 82.8315C196.626 82.9894 197.471 83.4169 198.141 84.0592C198.81 84.7015 199.271 85.5292 199.466 86.4359C199.661 87.3426 199.581 88.2869 199.235 89.1475C198.889 90.008 198.294 90.7456 197.526 91.2652C196.757 91.7849 195.851 92.0629 194.924 92.0637C194.324 92.083 193.726 91.9821 193.165 91.7669C192.604 91.5517 192.092 91.2267 191.659 90.8108C191.226 90.3949 190.88 89.8965 190.642 89.3451C190.404 88.7936 190.279 88.2002 190.274 87.5997Z" fill="white"/>
<path d="M199.6 94.3115H190.274V122.237H199.6V94.3115Z" fill="white"/>
<path d="M215.73 116.13C218.205 116.13 219.76 115.443 219.76 114.229C219.76 113.253 218.665 112.56 216.825 112.271L211.183 111.295C206.404 110.489 203.005 107.781 203.005 102.888C203.005 97.0139 208.016 93.5625 215.441 93.5625C222.064 93.5625 228.053 95.8049 228.456 103.178H220.22C220.049 101.111 218.034 100.181 215.441 100.181C213.023 100.181 211.933 101.049 211.933 102.082C211.933 103.116 212.62 103.927 214.867 104.33L220.034 105.193C225.201 106.169 228.729 108.706 228.729 113.656C228.729 120.104 222.969 122.982 215.658 122.982C208.461 122.982 202.529 120.047 201.894 112.617L210.16 112.679C210.605 115.097 212.795 116.13 215.73 116.13Z" fill="white"/>
<path d="M259.079 110.489H238.867C239.502 113.366 241.398 115.614 245.201 115.614C247.268 115.614 248.482 115.154 249.334 114.116H258.779C257.11 119.587 251.928 122.982 245.346 122.982C236.19 122.982 230.088 116.782 230.088 108.241C230.088 99.7005 236.02 93.5625 244.658 93.5625C254.527 93.5625 260.458 100.584 259.079 110.489ZM238.98 105.136H250.6C250.083 101.912 248.068 100.486 244.917 100.486C241.631 100.47 239.75 102.315 238.98 105.136Z" fill="white"/>
<path d="M266.431 95.2778H264.147V100.853H262.375V95.2778H260.086V93.6865H266.431V95.2778Z" fill="white"/>
<path d="M274.971 100.853H273.189V97.236L271.597 99.6953H270.605L269.004 97.2153V100.832H267.237V93.6865H268.565L271.101 97.5098L273.643 93.6865H274.971V100.853Z" fill="white"/>
</svg>
