<svg width="147" height="62" viewBox="0 0 147 62" fill="none" xmlns="http://www.w3.org/2000/svg">
<path d="M50.0739 22.4806H44.1032L48.9409 17.5067C49.4462 16.9887 49.8472 16.3731 50.1208 15.6954C50.3944 15.0177 50.5352 14.2912 50.5352 13.5574C50.5352 12.8236 50.3944 12.0971 50.1208 11.4194C49.8472 10.7417 49.4462 10.1261 48.9409 9.60804C48.4369 9.08812 47.8381 8.67558 47.1788 8.3941C46.5195 8.11261 45.8126 7.96771 45.0987 7.96771C44.3848 7.96771 43.6779 8.11261 43.0186 8.3941C42.3592 8.67558 41.7604 9.08812 41.2565 9.60804L36.4108 14.5922V8.43274C36.4108 7.69948 36.2702 6.97342 35.997 6.29612C35.7238 5.61881 35.3233 5.00354 34.8186 4.48553C34.3138 3.96753 33.7147 3.55694 33.0554 3.27728C32.3961 2.99761 31.6897 2.85436 30.9765 2.85572C29.5379 2.85572 28.1583 3.4433 27.141 4.48919C26.1238 5.53508 25.5523 6.95362 25.5523 8.43274V14.5881L20.6926 9.60597C20.1879 9.08697 19.5888 8.67526 18.9294 8.39437C18.2699 8.11348 17.5632 7.96891 16.8494 7.96891C16.1356 7.96891 15.4288 8.11348 14.7694 8.39437C14.11 8.67526 13.5108 9.08697 13.0062 9.60597C12.5008 10.1241 12.0998 10.7396 11.8262 11.4173C11.5526 12.095 11.4118 12.8216 11.4118 13.5553C11.4118 14.2891 11.5526 15.0156 11.8262 15.6934C12.0998 16.3711 12.5008 16.9866 13.0062 17.5047L17.8438 22.4785H11.8812C11.168 22.4785 10.4618 22.6231 9.80308 22.9041C9.14432 23.185 8.54591 23.5967 8.04209 24.1157C7.53827 24.6346 7.13893 25.2507 6.86693 25.9285C6.59492 26.6063 6.4556 27.3326 6.45692 28.0659C6.45692 29.545 7.0284 30.9635 8.04564 32.0094C9.06289 33.0553 10.4426 33.6429 11.8812 33.6429H18.0226C16.2071 36.6437 15.4404 40.1911 15.8489 43.7001C16.6706 50.88 22.3339 56.6574 29.3272 57.4175C32.162 57.7412 35.0282 57.2385 37.5984 55.9671C40.1686 54.6956 42.3391 52.7065 43.8621 50.227C45.3851 47.7475 46.1992 44.8776 46.2112 41.945C46.2233 39.0125 45.433 36.1356 43.9305 33.6429H50.0739C50.7871 33.6443 51.4935 33.501 52.1528 33.2213C52.812 32.9417 53.4112 32.5311 53.9159 32.0131C54.4207 31.4951 54.8211 30.8798 55.0944 30.2025C55.3676 29.5252 55.5082 28.7991 55.5082 28.0659C55.5093 27.3319 55.3694 26.605 55.0967 25.9267C54.8239 25.2485 54.4237 24.6322 53.9188 24.1133C53.4139 23.5945 52.8144 23.1831 52.1546 22.903C51.4949 22.6228 50.7878 22.4793 50.0739 22.4806ZM31.977 46.2346C31.0519 46.458 30.0812 46.3652 29.212 45.9704C28.3428 45.5756 27.6225 44.9002 27.1602 44.0466C26.6979 43.1929 26.5189 42.2077 26.6502 41.24C26.7816 40.2724 27.2161 39.3751 27.8881 38.6843C28.56 37.9934 29.4327 37.5466 30.3738 37.4115C31.315 37.2765 32.2733 37.4606 33.1035 37.9359C33.9337 38.4112 34.5906 39.1518 34.9747 40.0455C35.3587 40.9392 35.4489 41.9372 35.2316 42.8884C35.0441 43.701 34.6404 44.4441 34.0656 45.0343C33.4909 45.6245 32.7677 46.0387 31.977 46.2304V46.2346Z" fill="#FF715B"/>
<path d="M69.2315 20.6816V23.9968H75.7707V27.3802H69.2315V32.9055H65.4485V17.2548H76.8214V20.6816H69.2315Z" fill="#004E5C"/>
<path d="M88.0838 28.2105H80.2247C80.4718 29.361 81.2111 30.2595 82.6877 30.2595C83.4913 30.2595 83.9634 30.0757 84.2949 29.6605H87.9673C87.3184 31.8479 85.3034 33.2071 82.7439 33.2071C79.184 33.2071 76.8094 30.7284 76.8094 27.314C76.8094 23.8996 79.1157 21.4437 82.4747 21.4437C86.3139 21.4437 88.6202 24.2529 88.0838 28.2105ZM80.2709 26.0706H84.7931C84.5922 24.7816 83.8067 24.2115 82.5832 24.2115C81.2995 24.2053 80.5602 24.9428 80.2709 26.0706Z" fill="#004E5C"/>
<path d="M107.34 26.4383V32.9076H103.724V26.8989C103.724 25.3807 102.962 24.8333 101.932 24.8333C101.59 24.826 101.251 24.8988 100.941 25.0462C100.631 25.1937 100.357 25.4119 100.142 25.6843C100.16 25.8993 100.168 26.1151 100.164 26.3308V32.9138H96.5476V26.7832C96.5476 25.265 95.7862 24.8271 94.8681 24.8271C94.5047 24.8224 94.1453 24.9053 93.8187 25.0692C93.4921 25.2332 93.2075 25.4736 92.9877 25.7711V32.9076H89.3173V21.7432H92.9676V22.4331C93.7523 21.7644 94.7473 21.4126 95.7661 21.4437C97.1523 21.4437 98.2954 21.9044 99.0789 22.8256C100.066 21.9104 101.354 21.4162 102.683 21.4437C105.504 21.4437 107.34 23.216 107.34 26.4383Z" fill="#004E5C"/>
<path d="M120.304 21.7432V32.9076H116.678V32.3086C115.799 32.9105 114.764 33.2238 113.708 33.2071C110.775 33.2071 108.312 30.6272 108.312 27.3141C108.312 24.0009 110.775 21.4437 113.708 21.4437C114.764 21.4175 115.803 21.7222 116.686 22.3175V21.7432H120.304ZM116.678 29.0388V25.5872C116.4 25.2619 116.055 25.0048 115.667 24.835C115.28 24.6652 114.86 24.587 114.44 24.6061C112.961 24.6061 111.864 25.7794 111.864 27.3223C111.864 28.8653 112.961 30.0385 114.44 30.0385C114.862 30.0554 115.282 29.9743 115.67 29.8012C116.057 29.6281 116.402 29.3675 116.678 29.0388Z" fill="#004E5C"/>
<path d="M125.254 16.5649V32.9076H121.606V16.5649H125.254Z" fill="#004E5C"/>
<path d="M138.124 28.2105H130.264C130.512 29.361 131.249 30.2595 132.727 30.2595C133.531 30.2595 134.003 30.0757 134.335 29.6605H138.017C137.368 31.8479 135.353 33.2071 132.794 33.2071C129.234 33.2071 126.861 30.7284 126.861 27.314C126.861 23.8996 129.168 21.4437 132.527 21.4437C136.354 21.4437 138.66 24.2529 138.124 28.2105ZM130.309 26.0706H134.831C134.63 24.7816 133.846 24.2115 132.621 24.2115C131.339 24.2053 130.6 24.9428 130.309 26.0706Z" fill="#004E5C"/>
<path d="M75.0093 51.4584L72.1224 46.9307H69.2315V51.4584H65.4485V35.8139H72.0983C75.8812 35.8139 78.4125 37.9311 78.4125 41.3145C78.4333 42.2597 78.2049 43.1932 77.7514 44.0158C77.298 44.8384 76.6365 45.5195 75.837 45.9868L79.419 51.4584H75.0093ZM69.2315 43.4255H72.03C73.4865 43.4255 74.6276 42.5992 74.6276 41.3083C74.6276 40.0173 73.4865 39.2427 72.03 39.2427H69.2315V43.4255Z" fill="#004E5C"/>
<path d="M80.2066 37.6191C80.1922 37.2486 80.2859 36.8822 80.4756 36.5668C80.6653 36.2515 80.9424 36.0017 81.2712 35.8495C81.6001 35.6974 81.9657 35.6498 82.321 35.7129C82.6764 35.776 83.0053 35.9469 83.2654 36.2037C83.5256 36.4605 83.7051 36.7914 83.7809 37.1539C83.8568 37.5164 83.8254 37.8939 83.691 38.2379C83.5565 38.582 83.3251 38.8768 83.0264 39.0846C82.7277 39.2923 82.3754 39.4035 82.0147 39.4038C81.7813 39.4115 81.5488 39.3711 81.3308 39.2851C81.1128 39.1991 80.9137 39.0691 80.7452 38.9029C80.5768 38.7366 80.4423 38.5374 80.3498 38.3169C80.2574 38.0965 80.2087 37.8592 80.2066 37.6191Z" fill="#004E5C"/>
<path d="M83.8328 40.3023H80.2066V51.4666H83.8328V40.3023Z" fill="#004E5C"/>
<path d="M90.1048 49.0251C91.0671 49.0251 91.6718 48.7504 91.6718 48.265C91.6718 47.8746 91.2459 47.5978 90.5307 47.4822L88.3369 47.0918C86.4786 46.7696 85.1567 45.6872 85.1567 43.7311C85.1567 41.3826 87.1054 40.0028 89.9923 40.0028C92.5678 40.0028 94.8962 40.8992 95.0529 43.8468H91.8506C91.7843 43.0206 91.0008 42.6488 89.9923 42.6488C89.0521 42.6488 88.6282 42.9958 88.6282 43.4089C88.6282 43.822 88.8954 44.1463 89.7693 44.3074L91.7783 44.6524C93.7873 45.0427 95.1594 46.0569 95.1594 48.0357C95.1594 50.6136 92.9194 51.7641 90.0767 51.7641C87.2782 51.7641 84.9718 50.5908 84.7247 47.6206L87.9391 47.6454C88.1119 48.612 88.9637 49.0251 90.1048 49.0251Z" fill="#004E5C"/>
<path d="M106.96 46.7696H99.1011C99.3482 47.9201 100.085 48.8186 101.564 48.8186C102.368 48.8186 102.84 48.6348 103.171 48.2196H106.844C106.195 50.407 104.18 51.7641 101.62 51.7641C98.0604 51.7641 95.6878 49.2854 95.6878 45.871C95.6878 42.4567 97.9941 40.0028 101.353 40.0028C105.19 40.0028 107.497 42.8099 106.96 46.7696ZM99.1453 44.6296H103.663C103.463 43.3407 102.679 42.7706 101.454 42.7706C100.176 42.7644 99.4446 43.5018 99.1453 44.6296Z" fill="#004E5C"/>
<path d="M109.819 40.6886H108.931V42.9173H108.242V40.6886H107.352V40.0524H109.819V40.6886Z" fill="#004E5C"/>
<path d="M113.14 42.9173H112.447V41.4714L111.828 42.4546H111.442L110.819 41.4631V42.909H110.132V40.0524H110.649L111.635 41.5809L112.623 40.0524H113.14V42.9173Z" fill="#004E5C"/>
</svg>
