<svg width="48" height="48" viewBox="0 0 48 48" fill="none" xmlns="http://www.w3.org/2000/svg">
<path d="M9 15H16.172C16.702 15 17.21 15.21 17.586 15.586L18.414 16.414C18.79 16.79 19.298 17 19.828 17H26.172C26.702 17 27.21 16.79 27.586 16.414L28.414 15.586C28.79 15.21 29.298 15 29.828 15H37M9 23H16.172C16.702 23 17.21 23.21 17.586 23.586L18.414 24.414C18.79 24.79 19.298 25 19.828 25H26.172C26.702 25 27.21 24.79 27.586 24.414L28.414 23.586C28.79 23.21 29.298 23 29.828 23H37M39 37H7C5.894 37 5 36.104 5 35V11C5 9.896 5.894 9 7 9H39C40.106 9 41 9.896 41 11V35C41 36.104 40.106 37 39 37Z" stroke="white" stroke-linecap="round" stroke-linejoin="round"/>
</svg>
