<svg width="49" height="48" viewBox="0 0 49 48" fill="none" xmlns="http://www.w3.org/2000/svg">
<path d="M41.5 19V23C41.5 32.9411 33.4411 41 23.5 41C20.7212 41 18.0895 40.3703 15.7398 39.2459M41.5 19L45.5 23M41.5 19L37.5 23M9.5 23L5.5 27L1.5 23M5.5 26.5V23C5.5 13.0589 13.5589 5 23.5 5C26.2788 5 28.9105 5.62967 31.2602 6.75411M17.5 35C17.5 38.3137 14.8137 41 11.5 41C8.18629 41 5.5 38.3137 5.5 35C5.5 31.6863 8.18629 29 11.5 29C14.8137 29 17.5 31.6863 17.5 35ZM41.5 11C41.5 14.3137 38.8137 17 35.5 17C32.1863 17 29.5 14.3137 29.5 11C29.5 7.68629 32.1863 5 35.5 5C38.8137 5 41.5 7.68629 41.5 11ZM36.5 11C36.5 11.5523 36.0523 12 35.5 12C34.9477 12 34.5 11.5523 34.5 11C34.5 10.4477 34.9477 10 35.5 10C36.0523 10 36.5 10.4477 36.5 11ZM12.5 35C12.5 35.5523 12.0523 36 11.5 36C10.9477 36 10.5 35.5523 10.5 35C10.5 34.4477 10.9477 34 11.5 34C12.0523 34 12.5 34.4477 12.5 35Z" stroke="white" stroke-linecap="round" stroke-linejoin="round"/>
</svg>
